<svg xmlns="http://www.w3.org/2000/svg" viewBox="0 0 512 512" fill="none">
  <path d="M81 224c72-29 112-87 175-112 38 16 64 66 94 65 25-1 35-23 61-6 11 8 22 24 37 35" stroke="#8A6A52" stroke-width="16" stroke-linecap="round" stroke-linejoin="round"/>
  <path d="M75 251c66-24 125-24 184 0 66 27 120 10 179-7" stroke="#9AA68F" stroke-width="17" stroke-linecap="round"/>
  <path d="M88 289c64-28 120-28 177-5 61 25 111 8 169-11" stroke="#D49355" stroke-width="17" stroke-linecap="round"/>
  <path d="M70 329c70-25 131-18 184 25-55-26-111-22-174 5" stroke="#80624E" stroke-width="17" stroke-linecap="round" stroke-linejoin="round"/>
  <path d="M442 329c-70-25-131-18-184 25 55-26 111-22 174 5" stroke="#80624E" stroke-width="17" stroke-linecap="round" stroke-linejoin="round"/>
</svg>
