<svg xmlns="http://www.w3.org/2000/svg" viewBox="0 0 900 900" role="img" aria-labelledby="title desc">
  <title id="title">分数集市课堂插画</title><desc id="desc">纸艺风格的小集市里，水果被分成不同份数供学生观察</desc>
  <defs><linearGradient id="bg" x1="0" y1="0" x2="1" y2="1"><stop stop-color="#E5EDDF"/><stop offset="1" stop-color="#F6DFC8"/></linearGradient><filter id="s" x="-30%" y="-30%" width="160%" height="180%"><feDropShadow dy="15" stdDeviation="16" flood-color="#614A39" flood-opacity=".18"/></filter></defs>
  <rect width="900" height="900" rx="54" fill="url(#bg)"/>
  <path d="M0 641c147-50 310-41 458 5 156 49 300 42 442-8v262H0Z" fill="#C79B7B"/>
  <g filter="url(#s)"><path d="M112 315h676l-42-124H154Z" fill="#C9875B"/><path d="M154 191h592l42 124H112Z" fill="#EBC9A8"/><path d="M130 315h640v336H130Z" fill="#FFF8EC"/><path d="M130 315h640v78H130Z" fill="#F4D2B8"/><path d="M172 315h78v78h-78Zm160 0h78v78h-78Zm160 0h78v78h-78Zm160 0h78v78h-78Z" fill="#D98E77"/></g>
  <g transform="translate(194 438)" filter="url(#s)"><rect width="196" height="144" rx="22" fill="#E8D6BF"/><circle cx="65" cy="72" r="43" fill="#F0A85F"/><path d="M65 29v86M22 72h86" stroke="#FFF6E8" stroke-width="7"/><path d="M48 30c10-23 28-34 53-33" fill="none" stroke="#76906B" stroke-width="12" stroke-linecap="round"/><rect x="124" y="43" width="48" height="58" rx="12" fill="#FFF9EF"/><path d="M138 60h21M138 76h21" stroke="#A98C71" stroke-width="7" stroke-linecap="round"/></g>
  <g transform="translate(510 438)" filter="url(#s)"><rect width="196" height="144" rx="22" fill="#DDE8D8"/><circle cx="65" cy="72" r="43" fill="#D8827C"/><path d="M65 29v86" stroke="#FFF6E8" stroke-width="7"/><path d="M48 30c10-23 28-34 53-33" fill="none" stroke="#76906B" stroke-width="12" stroke-linecap="round"/><rect x="124" y="43" width="48" height="58" rx="12" fill="#FFF9EF"/><path d="M138 60h21M138 76h21" stroke="#A98C71" stroke-width="7" stroke-linecap="round"/></g>
  <g transform="translate(231 676) rotate(-3)" filter="url(#s)"><rect width="438" height="112" rx="24" fill="#FFF9EF"/><g transform="translate(30 27)"><rect width="58" height="58" rx="12" fill="#D78B66"/><rect x="72" width="58" height="58" rx="12" fill="#D78B66"/><rect x="144" width="58" height="58" rx="12" fill="#F0D9C7"/><rect x="216" width="58" height="58" rx="12" fill="#F0D9C7"/><path d="M306 17h85M306 42h58" stroke="#A98C71" stroke-width="9" stroke-linecap="round"/></g></g>
  <path d="M93 201c42 7 69 29 82 65-44-1-72-23-82-65Zm714 31c-38 1-65 19-80 54 39 4 67-14 80-54Z" fill="#8DA27E" opacity=".8"/>
</svg>
