<svg xmlns="http://www.w3.org/2000/svg" viewBox="0 0 900 900" role="img" aria-labelledby="title desc">
  <title id="title">几何花园课堂插画</title><desc id="desc">学生用彩色几何积木在桌面拼出花园与小房子</desc>
  <defs><linearGradient id="bg" x1="0" y1="0" x2="0" y2="1"><stop stop-color="#F8EDDF"/><stop offset="1" stop-color="#E1E8D9"/></linearGradient><filter id="s" x="-30%" y="-30%" width="160%" height="180%"><feDropShadow dy="15" stdDeviation="16" flood-color="#634938" flood-opacity=".18"/></filter></defs>
  <rect width="900" height="900" rx="54" fill="url(#bg)"/>
  <circle cx="180" cy="160" r="86" fill="#F5D8AE"/><path d="M79 553c174-109 335-104 483-24 113 61 219 62 338 9v362H0V608Z" fill="#B98767"/>
  <g filter="url(#s)"><rect x="147" y="257" width="606" height="390" rx="34" fill="#FFF9EE"/><path d="M179 544c92-83 190-110 294-82 94 25 174 13 247-37v187H179Z" fill="#DDE9D8"/></g>
  <g transform="translate(246 354)" filter="url(#s)"><rect x="0" y="94" width="176" height="142" rx="18" fill="#E6A27D"/><path d="M-24 104 88 0l112 104Z" fill="#D98970"/><rect x="63" y="154" width="52" height="82" rx="12" fill="#FFF5E6"/><circle cx="102" cy="194" r="5" fill="#A76E55"/></g>
  <g transform="translate(493 344)" filter="url(#s)"><circle cx="72" cy="72" r="72" fill="#F0B867"/><path d="M72 0A72 72 0 0 1 144 72H72Z" fill="#D98377"/><path d="M72 72v72A72 72 0 0 1 0 72Z" fill="#8EA686"/><rect x="49" y="142" width="46" height="118" rx="18" fill="#B67D5D"/></g>
  <g transform="translate(173 676)" filter="url(#s)"><rect width="554" height="116" rx="26" fill="#FFF9EE"/><path d="M38 76 83 30l45 46Zm123 0V30h92v46Zm126 0 46-46 46 46Zm135 0c0-25 20-46 46-46s46 21 46 46Z" fill="#D68B69"/><circle cx="83" cy="55" r="11" fill="#FFF1D9"/><circle cx="207" cy="54" r="11" fill="#FFF1D9"/><circle cx="333" cy="55" r="11" fill="#FFF1D9"/><circle cx="468" cy="55" r="11" fill="#FFF1D9"/></g>
  <g fill="#809974"><path d="M727 170c-58 13-91 44-97 94 58-11 91-43 97-94Z"/><path d="M733 180c36 20 54 48 54 85-38-16-56-44-54-85Z"/></g>
</svg>
