<svg xmlns="http://www.w3.org/2000/svg" viewBox="0 0 900 900" role="img" aria-labelledby="title desc">
  <title id="title">果汁标签观察课堂插画</title>
  <desc id="desc">暖色木桌上摆放三杯不同颜色的果汁、观察卡和放大镜</desc>
  <defs>
    <linearGradient id="bg" x1="0" y1="0" x2="1" y2="1"><stop stop-color="#F8EBD8"/><stop offset="1" stop-color="#E4BDA6"/></linearGradient>
    <linearGradient id="wall" x1="0" y1="0" x2="0" y2="1"><stop stop-color="#FFF9EF"/><stop offset="1" stop-color="#F2DFCB"/></linearGradient>
    <filter id="shadow" x="-30%" y="-30%" width="160%" height="180%"><feDropShadow dx="0" dy="18" stdDeviation="18" flood-color="#79513B" flood-opacity=".2"/></filter>
  </defs>
  <rect width="900" height="900" rx="54" fill="url(#bg)"/>
  <rect x="42" y="42" width="816" height="816" rx="44" fill="url(#wall)"/>
  <circle cx="742" cy="150" r="92" fill="#F5D9B6" opacity=".7"/>
  <path d="M80 570C210 520 320 554 451 535c130-19 242-67 369-24v307H80Z" fill="#A4775D"/>
  <path d="M80 579c164 31 337 15 515-24 90-20 163-18 225 1v40c-78-20-160-15-252 7-167 40-330 48-488 18Z" fill="#C59777" opacity=".55"/>
  <g filter="url(#shadow)">
    <g transform="translate(158 282)">
      <rect x="0" y="80" width="160" height="294" rx="52" fill="#E99A54"/>
      <path d="M20 173h120v160c0 25-20 45-45 45H65c-25 0-45-20-45-45Z" fill="#EAAF62"/>
      <rect x="34" y="20" width="92" height="96" rx="26" fill="#FFF9EE"/>
      <rect x="24" y="158" width="132" height="94" rx="18" fill="#FFF7E8"/>
      <circle cx="90" cy="205" r="25" fill="#F2C15F"/><path d="M90 180c-8 12-10 22-5 31 8 0 17-6 25-18-5-8-12-12-20-13Z" fill="#91A879"/>
    </g>
    <g transform="translate(370 240)">
      <rect x="0" y="80" width="160" height="336" rx="52" fill="#D9857E"/>
      <path d="M20 185h120v190c0 25-20 45-45 45H65c-25 0-45-20-45-45Z" fill="#E9A29A"/>
      <rect x="34" y="20" width="92" height="96" rx="26" fill="#FFF9EE"/>
      <rect x="24" y="174" width="132" height="94" rx="18" fill="#FFF7E8"/>
      <path d="M56 225c20-38 66-38 84 0-18 19-64 20-84 0Z" fill="#D77770"/><path d="M98 198c-5-17 2-31 20-39" fill="none" stroke="#77916F" stroke-width="10" stroke-linecap="round"/>
    </g>
    <g transform="translate(584 286)">
      <rect x="0" y="80" width="160" height="290" rx="52" fill="#7F9D78"/>
      <path d="M20 172h120v158c0 25-20 45-45 45H65c-25 0-45-20-45-45Z" fill="#99B18D"/>
      <rect x="34" y="20" width="92" height="96" rx="26" fill="#FFF9EE"/>
      <rect x="24" y="157" width="132" height="94" rx="18" fill="#FFF7E8"/>
      <path d="M54 207c24-32 55-34 87-7-18 35-54 43-87 7Z" fill="#8CB06D"/><path d="M96 184c8-15 22-21 42-18" fill="none" stroke="#63805F" stroke-width="9" stroke-linecap="round"/>
    </g>
  </g>
  <g transform="translate(96 657) rotate(-5)" filter="url(#shadow)">
    <rect width="260" height="126" rx="20" fill="#FFF9EF"/><rect x="24" y="25" width="120" height="13" rx="7" fill="#B69070"/><rect x="24" y="56" width="176" height="10" rx="5" fill="#DEC9B5"/><rect x="24" y="80" width="144" height="10" rx="5" fill="#DEC9B5"/><circle cx="217" cy="74" r="23" fill="#F0C37D"/>
  </g>
  <g transform="translate(637 645) rotate(7)" filter="url(#shadow)"><circle cx="72" cy="72" r="58" fill="none" stroke="#6B5344" stroke-width="18"/><path d="m113 113 75 75" stroke="#6B5344" stroke-width="22" stroke-linecap="round"/><circle cx="56" cy="54" r="16" fill="#FFF" opacity=".75"/></g>
  <g fill="#A67C60" opacity=".7"><circle cx="116" cy="170" r="9"/><circle cx="146" cy="144" r="5"/><path d="M793 242c-36-13-57-40-62-80 37 9 61 34 62 80Zm0 0c17-38 44-61 82-68-10 38-37 61-82 68Z"/></g>
</svg>
