<svg xmlns="http://www.w3.org/2000/svg" viewBox="0 0 1200 675" role="img" aria-labelledby="title desc">
  <title id="title">百分数百格图课件页</title><desc id="desc">展示百分数百格图、关键词和课堂问题的课件页面</desc>
  <defs><linearGradient id="bg" x1="0" y1="0" x2="1" y2="1"><stop stop-color="#FFF9EF"/><stop offset="1" stop-color="#F3E4D3"/></linearGradient><filter id="s" x="-20%" y="-20%" width="140%" height="160%"><feDropShadow dy="12" stdDeviation="12" flood-color="#70503D" flood-opacity=".16"/></filter><pattern id="grid" width="30" height="30" patternUnits="userSpaceOnUse"><rect width="30" height="30" fill="#FFFDF8"/><path d="M30 0H0v30" fill="none" stroke="#D8C2AC" stroke-width="2"/></pattern></defs>
  <rect width="1200" height="675" rx="34" fill="url(#bg)"/>
  <path d="M0 0h1200v88H0Z" fill="#EED7C0"/><circle cx="57" cy="44" r="19" fill="#B8754D"/><path d="m48 44 7 7 12-15" fill="none" stroke="#FFF9EF" stroke-width="5" stroke-linecap="round"/><text x="96" y="54" fill="#6B5344" font-family="Inter, PingFang SC, Microsoft YaHei, sans-serif" font-size="30" font-weight="650">百格图里的 37%</text>
  <g transform="translate(95 139)" filter="url(#s)"><rect width="410" height="410" rx="26" fill="url(#grid)"/><path d="M0 0h300v90H0Zm0 90h210v30H0" fill="#C98A5C" opacity=".94"/><rect width="410" height="410" rx="26" fill="none" stroke="#C5A98E" stroke-width="4"/></g>
  <g transform="translate(590 153)"><text x="0" y="70" fill="#6B5344" font-family="Inter, PingFang SC, Microsoft YaHei, sans-serif" font-size="76" font-weight="750">37%</text><path d="M0 102h446" stroke="#D6BDA5" stroke-width="3"/><text x="0" y="162" fill="#8B7355" font-family="Inter, PingFang SC, Microsoft YaHei, sans-serif" font-size="28">每 100 格中，涂色了 37 格</text><g transform="translate(0 211)"><rect width="445" height="116" rx="24" fill="#FFF9EF"/><circle cx="55" cy="58" r="28" fill="#DDE8D9"/><path d="M48 59h14M55 52v14" stroke="#66805F" stroke-width="6" stroke-linecap="round"/><text x="104" y="50" fill="#6B5344" font-family="Inter, PingFang SC, Microsoft YaHei, sans-serif" font-size="23" font-weight="650">想一想</text><text x="104" y="82" fill="#8B7355" font-family="Inter, PingFang SC, Microsoft YaHei, sans-serif" font-size="20">如果涂色 50 格，会怎样表示？</text></g><g transform="translate(0 353)"><rect width="160" height="54" rx="27" fill="#EFDCC8"/><text x="36" y="36" fill="#805D45" font-family="Inter, PingFang SC, Microsoft YaHei, sans-serif" font-size="20">整体 100</text><rect x="181" width="160" height="54" rx="27" fill="#E1EAD9"/><text x="217" y="36" fill="#587153" font-family="Inter, PingFang SC, Microsoft YaHei, sans-serif" font-size="20">部分 37</text></g></g>
</svg>
