<svg xmlns="http://www.w3.org/2000/svg" viewBox="0 0 1200 675" role="img" aria-labelledby="title desc">
  <title id="title">认识百分数课件封面</title><desc id="desc">暖色纸艺风格的认识百分数课堂课件封面</desc>
  <defs><linearGradient id="bg" x1="0" y1="0" x2="1" y2="1"><stop stop-color="#FFF9EF"/><stop offset="1" stop-color="#F1D9C2"/></linearGradient><linearGradient id="wave" x1="0" y1="0" x2="1" y2="0"><stop stop-color="#D9A07D"/><stop offset="1" stop-color="#B87350"/></linearGradient><filter id="s" x="-20%" y="-20%" width="140%" height="160%"><feDropShadow dy="14" stdDeviation="14" flood-color="#6B4936" flood-opacity=".18"/></filter></defs>
  <rect width="1200" height="675" rx="34" fill="url(#bg)"/>
  <path d="M0 541c186-92 336-103 514-39 215 78 433 55 686-58v231H0Z" fill="#F0C9AF"/><path d="M0 594c207-71 389-67 548 3 184 81 401 64 652-50v128H0Z" fill="url(#wave)" opacity=".92"/>
  <g transform="translate(100 89)"><circle cx="31" cy="31" r="31" fill="#B8754D"/><path d="m17 31 10 10 19-22" fill="none" stroke="#FFF9EF" stroke-width="8" stroke-linecap="round" stroke-linejoin="round"/><path d="M84 21h174M84 42h105" stroke="#A4866C" stroke-width="10" stroke-linecap="round"/></g>
  <g transform="translate(117 224)"><path d="M0 0h530" stroke="#D4BBA3" stroke-width="2"/><text x="0" y="87" fill="#6B5344" font-family="Inter, PingFang SC, Microsoft YaHei, sans-serif" font-size="70" font-weight="700">认识百分数</text><text x="4" y="146" fill="#8B7355" font-family="Inter, PingFang SC, Microsoft YaHei, sans-serif" font-size="26">从一杯果汁开始，读懂整体与部分</text><rect x="4" y="186" width="168" height="46" rx="23" fill="#FFF9EF" opacity=".88"/><text x="40" y="217" fill="#8B7355" font-family="Inter, PingFang SC, Microsoft YaHei, sans-serif" font-size="20">六年级数学</text></g>
  <g transform="translate(774 154) rotate(3)" filter="url(#s)"><rect width="296" height="340" rx="38" fill="#FFF9EF"/><g transform="translate(45 49)"><rect width="206" height="206" rx="24" fill="#F4E6D5"/><g transform="translate(25 25)"><g fill="#C98A5C"><rect width="28" height="28" rx="5"/><rect x="33" width="28" height="28" rx="5"/><rect x="66" width="28" height="28" rx="5"/><rect x="99" width="28" height="28" rx="5"/><rect x="132" width="28" height="28" rx="5"/><rect y="33" width="28" height="28" rx="5"/><rect x="33" y="33" width="28" height="28" rx="5"/><rect x="66" y="33" width="28" height="28" rx="5"/><rect x="99" y="33" width="28" height="28" rx="5"/><rect y="66" width="28" height="28" rx="5"/><rect x="33" y="66" width="28" height="28" rx="5"/><rect x="66" y="66" width="28" height="28" rx="5"/><rect y="99" width="28" height="28" rx="5"/></g></g><text x="51" y="294" fill="#6B5344" font-family="Inter, sans-serif" font-size="48" font-weight="700">37%</text></g></g>
  <path d="M1110 102c-49 12-79 40-87 84 49-9 79-37 87-84Zm2 5c29 20 42 47 39 81-31-16-45-43-39-81Z" fill="#A6B796"/>
</svg>
