<svg xmlns="http://www.w3.org/2000/svg" viewBox="0 0 1200 675" role="img" aria-labelledby="title desc">
  <title id="title">课堂提问视频画面</title><desc id="desc">学生围坐在桌旁观察百分数卡片并举手回答</desc>
  <defs><linearGradient id="bg" x1="0" y1="0" x2="1" y2="1"><stop stop-color="#F6E7D6"/><stop offset="1" stop-color="#D7E4D1"/></linearGradient><filter id="s" x="-20%" y="-20%" width="140%" height="160%"><feDropShadow dy="12" stdDeviation="12" flood-color="#614838" flood-opacity=".2"/></filter></defs>
  <rect width="1200" height="675" rx="36" fill="url(#bg)"/>
  <circle cx="180" cy="126" r="86" fill="#F3C984" opacity=".65"/>
  <g transform="translate(360 65)" filter="url(#s)"><rect width="480" height="240" rx="28" fill="#FFF9EF"/><rect x="42" y="46" width="180" height="148" rx="18" fill="#E7D7C3"/><g transform="translate(62 66)" fill="#C98A5C"><rect width="24" height="24"/><rect x="29" width="24" height="24"/><rect x="58" width="24" height="24"/><rect x="87" width="24" height="24"/><rect x="116" width="24" height="24"/><rect y="29" width="24" height="24"/><rect x="29" y="29" width="24" height="24"/><rect x="58" y="29" width="24" height="24"/><rect x="87" y="29" width="24" height="24"/><rect y="58" width="24" height="24"/><rect x="29" y="58" width="24" height="24"/><rect x="58" y="58" width="24" height="24"/></g><path d="M264 68h164M264 103h125M264 145h151" stroke="#B89D84" stroke-width="14" stroke-linecap="round"/><circle cx="412" cy="181" r="18" fill="#8BA382"/></g>
  <path d="M104 514c231-115 543-122 854-10 57 21 103 23 138 8v163H104Z" fill="#A8785D"/>
  <g filter="url(#s)"><g transform="translate(160 274)"><circle cx="92" cy="71" r="53" fill="#E6A57E"/><path d="M39 65c9-66 95-78 112-6-33-25-69-23-112 6Z" fill="#554039"/><path d="M18 248c0-100 43-140 91-140 55 0 103 40 103 140Z" fill="#D88778"/><path d="M118 145c60-51 89-100 89-147" fill="none" stroke="#E6A57E" stroke-width="25" stroke-linecap="round"/><circle cx="208" cy="-11" r="17" fill="#E6A57E"/></g><g transform="translate(840 282)"><circle cx="92" cy="71" r="53" fill="#D99A74"/><path d="M36 76c-3-66 82-92 113-26-38-16-76-7-113 26Z" fill="#61463B"/><path d="M18 240c0-96 43-132 91-132 55 0 103 36 103 132Z" fill="#7F9D78"/></g></g>
  <g transform="translate(418 405)" filter="url(#s)"><rect width="372" height="154" rx="28" fill="#FFF9EF"/><circle cx="104" cy="77" r="49" fill="#D9857E"/><path d="M104 28v98M55 77h98" stroke="#FFF7EA" stroke-width="8"/><path d="M190 53h131M190 82h105M190 111h77" stroke="#B39175" stroke-width="11" stroke-linecap="round"/></g>
</svg>
