<svg xmlns="http://www.w3.org/2000/svg" viewBox="0 0 1200 675" role="img" aria-labelledby="title desc">
  <title id="title">果汁标签侦探视频画面</title><desc id="desc">温暖课堂中教师带领学生观察果汁标签的故事镜头</desc>
  <defs><linearGradient id="bg" x1="0" y1="0" x2="1" y2="1"><stop stop-color="#5F493E"/><stop offset="1" stop-color="#8A6656"/></linearGradient><linearGradient id="board" x1="0" y1="0" x2="0" y2="1"><stop stop-color="#EDF2E6"/><stop offset="1" stop-color="#D6E3CF"/></linearGradient><filter id="s" x="-20%" y="-20%" width="140%" height="160%"><feDropShadow dy="12" stdDeviation="13" flood-color="#2B1D17" flood-opacity=".25"/></filter></defs>
  <rect width="1200" height="675" rx="36" fill="url(#bg)"/>
  <rect x="58" y="54" width="1084" height="515" rx="30" fill="#F8E9D7"/>
  <rect x="92" y="88" width="684" height="384" rx="22" fill="url(#board)" filter="url(#s)"/>
  <g transform="translate(143 137)"><rect width="281" height="58" rx="16" fill="#FFF9EF"/><circle cx="35" cy="29" r="15" fill="#C9865C"/><path d="M68 22h176M68 38h128" stroke="#B29D89" stroke-width="9" stroke-linecap="round"/><rect y="91" width="516" height="205" rx="20" fill="#FFF9EF"/><g transform="translate(44 128)"><rect width="112" height="130" rx="34" fill="#E5A158"/><rect x="25" y="48" width="62" height="46" rx="12" fill="#FFF6E9"/><rect x="165" width="112" height="130" rx="34" fill="#D88780"/><rect x="190" y="48" width="62" height="46" rx="12" fill="#FFF6E9"/><rect x="330" width="112" height="130" rx="34" fill="#83A17C"/><rect x="355" y="48" width="62" height="46" rx="12" fill="#FFF6E9"/></g></g>
  <g transform="translate(828 117)" filter="url(#s)"><circle cx="116" cy="86" r="60" fill="#E5A982"/><path d="M51 78c5-69 47-90 92-67 34 17 45 55 35 91-19-30-42-42-68-36-21 5-40 9-59 12Z" fill="#5A4037"/><path d="M30 313c2-127 50-181 132-178 78 3 116 64 116 178Z" fill="#B56C52"/><path d="M85 152c18 40 66 48 89 0v62H85Z" fill="#FFF4E5"/><path d="M59 251c74-55 144-55 209 0l-28 96H86Z" fill="#FFF9EF"/><path d="M150 235c20-36 58-58 105-63" fill="none" stroke="#E5A982" stroke-width="22" stroke-linecap="round"/><circle cx="260" cy="166" r="16" fill="#E5A982"/></g>
  <path d="M50 545h1100v80H50Z" fill="#9C735C"/><path d="M50 545c237-24 443-19 620 14 179 33 339 30 480-10v76H50Z" fill="#BE8D6E"/>
  <g transform="translate(890 528)" fill="#FFF9EF"><rect width="195" height="52" rx="26" opacity=".95"/><circle cx="31" cy="26" r="9" fill="#C9865C"/><path d="M55 20h112M55 33h78" stroke="#9E7B64" stroke-width="7" stroke-linecap="round"/></g>
</svg>
